<?xml version="1.0" encoding="UTF-8" standalone="no"?>
<svg width="314.2959mm" height="84.648926mm" viewBox="0 0 314.2959 84.648927" version="1.1" id="svg5"
   xmlns="http://www.w3.org/2000/svg"
   xmlns:svg="http://www.w3.org/2000/svg">
   <defs id="defs2">
      <rect x="410.47845" y="96.919708" width="779.45496" height="315.51389" id="rect4801" />
      <rect x="-404.35831" y="218.50101" width="354.70154" height="330.47247" id="rect72057" />
      <rect x="116.23223" y="159.13701" width="1493.7189" height="320.44611" id="rect26684" />
      <linearGradient id="linearGradient20818">
         <stop style="stop-color:#000000;stop-opacity:1;" offset="0" id="stop20816" />
      </linearGradient>
      <rect x="218.0103" y="323.96979" width="250.39372" height="237.34656" id="rect3531" />
   </defs>
   <g id="layer2" transform="translate(71.879911,-58.066284)">
      <rect style="fill:#000000;fill-opacity:1;stroke-width:0.225091" id="rect49427" width="238.74268" height="84.648926" x="3.6733112" y="58.066284" />
      <path id="text72055" style="font-style:normal;font-weight:normal;font-size:233.401px;line-height:1.25;font-family:sans-serif;white-space:pre;shape-inside:url(#rect72057);fill:#000000;fill-opacity:1;stroke:none;stroke-width:1.05047" d="m 258.31445,147.91602 c -40.34548,0 -62.57226,31.60071 -62.57226,70.66601 0,41.05589 22.71036,70.16797 66.67969,70.16797 21.74307,0 39.13731,-7.46465 51.21679,-18.16406 l -15.2207,-21.39844 c -10.14677,6.71824 -21.25916,10.94922 -32.85547,10.94922 -16.4281,0 -28.26634,-8.45977 -30.92383,-30.10742 h 83.10742 c 0.48318,-3.98118 0.72461,-9.70477 0.72461,-14.1836 0,-42.54883 -23.43461,-67.92968 -60.15625,-67.92968 z m -103.88281,0.49804 c -20.53513,0 -34.54811,10.94886 -43.72852,33.5918 l -6.76367,-29.60938 H 57.794922 v 26.125 h 16.912109 v 79.625 H 57.794922 v 26.375 h 80.449218 v -26.375 h -25.36719 v -37.82226 c 5.79816,-19.65706 17.15306,-34.33794 31.64844,-36.82617 v 24.13672 h 24.16016 l 7.00586,-55.23829 c -6.03975,-2.48823 -12.56254,-3.98242 -21.25977,-3.98242 z m 103.88281,25.87891 c 16.18651,0 22.70959,12.68824 22.95117,31.84765 h -47.10937 c 1.69113,-21.89647 10.62918,-31.84765 24.1582,-31.84765 z" transform="matrix(0.26458333,0,0,0.26458333,-87.171484,48.066284)" />
   </g>
   <g id="layer1" transform="translate(66.588244,-58.066284)">
      <path id="text26682" style="font-style:normal;font-weight:normal;font-size:266.667px;line-height:1.25;font-family:sans-serif;white-space:pre;shape-inside:url(#rect26684);fill:#ffffff;fill-opacity:1;stroke:none;stroke-width:0.875252" d="M 1109.8906 202.53125 C 1095.1684 202.53125 1083.1992 214.73981 1083.1992 229.22266 C 1083.1992 243.7055 1095.1684 255.91406 1109.8906 255.91406 C 1124.6128 255.91406 1136.582 243.7055 1136.582 229.22266 C 1136.582 214.73981 1124.6128 202.53125 1109.8906 202.53125 z " transform="matrix(0.26458333,0,0,0.26458333,-66.588244,58.066284)" />
      <path id="text4799" style="font-style:normal;font-variant:normal;font-weight:bold;font-stretch:normal;font-size:232px;line-height:1.25;font-family:'FiraCode Nerd Font Mono';-inkscape-font-specification:'FiraCode Nerd Font Mono Bold';white-space:pre;shape-inside:url(#rect4801);fill:#ffffff;fill-opacity:1;stroke:none" d="M 633.90625 68.277344 L 633.90625 93.976562 L 671.14648 93.976562 L 671.14648 200.45898 C 671.14648 229.96463 684.94686 248.88086 715.4043 248.88086 C 731.46584 248.88086 743.36353 245.07376 751.92969 240.55273 L 742.88672 215.44922 C 737.65185 217.59076 731.46563 219.25586 725.04102 219.25586 C 714.9282 219.25586 708.74219 215.32945 708.74219 205.09766 L 708.74219 68.277344 L 633.90625 68.277344 z M 414.04102 75.773438 C 379.89538 75.773438 351.9375 93.382076 351.9375 123.60156 C 351.9375 148.70515 366.69059 163.33873 405.23828 175.11719 C 428.20033 182.13667 435.21875 187.60859 435.21875 199.625 C 435.21875 212.47423 424.03582 219.85156 407.73633 219.85156 C 390.12812 219.85156 375.37562 213.903 363.24023 203.19531 L 343.49023 225.08594 C 357.29126 238.64901 377.51622 248.88086 408.6875 248.88086 C 450.68545 248.88086 475.78906 227.4667 475.78906 196.65234 C 475.78906 166.31388 457.34902 153.10763 426.17773 143.4707 C 399.8844 135.26147 392.38867 131.21567 392.38867 120.62695 C 392.38867 110.03824 402.26297 104.44727 417.13477 104.44727 C 430.45989 104.44727 443.54688 108.96805 454.73047 118.24805 L 473.17188 97.070312 C 458.89495 83.507236 439.50153 75.773438 414.04102 75.773438 z M 554.78906 114.32031 C 516.1224 114.32031 493.39844 141.44666 493.39844 181.54102 C 493.39844 224.01486 516.1224 248.88086 554.78906 248.88086 C 593.45573 248.88086 616.17969 223.54058 616.17969 181.30469 C 616.17969 140.85341 593.69368 114.32031 554.78906 114.32031 z M 984.28711 114.32031 C 944.54967 114.32031 922.6582 144.42135 922.6582 181.7793 C 922.6582 221.04083 944.90639 248.88086 988.33203 248.88086 C 1009.8664 248.88086 1026.8799 241.74351 1038.7773 231.51172 L 1023.666 211.04688 C 1013.6722 217.47149 1002.8472 221.51758 991.30664 221.51758 C 975.2451 221.51758 963.46526 213.30701 960.9668 192.60547 L 1042.8223 192.60547 C 1043.2982 188.79829 1043.5352 183.44519 1043.5352 179.16211 C 1043.5352 138.47288 1020.3363 114.32031 984.28711 114.32031 z M 775.84375 118.48438 L 818.43555 244.83594 L 862.69531 244.83594 L 904.81055 118.48438 L 866.74023 118.48438 L 841.04102 216.04492 L 816.41406 118.48438 L 775.84375 118.48438 z M 984.28711 139.54297 C 1000.3486 139.54297 1006.6527 151.6799 1006.8906 170.00195 L 960.49219 170.00195 C 962.15783 148.82452 970.84301 139.54297 984.28711 139.54297 z M 554.78906 142.04297 C 570.13675 142.04297 577.39453 154.05956 577.39453 181.30469 C 577.39453 209.50161 570.13675 221.2793 554.78906 221.2793 C 539.44137 221.2793 532.18359 209.49999 532.18359 181.54102 C 532.18359 154.05794 539.44137 142.04297 554.78906 142.04297 z " transform="matrix(0.26458333,0,0,0.26458333,-66.588244,58.066284)" />
   </g>
</svg>
