<?xml version="1.0" encoding="UTF-8" standalone="no"?>
<!-- Created with Inkscape (http://www.inkscape.org/) -->

<svg
   width="464.47385mm"
   height="104.64892mm"
   viewBox="0 0 464.47385 104.64892"
   version="1.1"
   id="svg5"
   xmlns="http://www.w3.org/2000/svg"
   xmlns:svg="http://www.w3.org/2000/svg">
  <defs
     id="defs2">
    <rect
       x="-404.35831"
       y="218.50101"
       width="354.70154"
       height="330.47247"
       id="rect72057" />
    <rect
       x="116.23223"
       y="159.13701"
       width="1493.7189"
       height="320.44611"
       id="rect26684" />
    <linearGradient
       id="linearGradient20818">
      <stop
         style="stop-color:#000000;stop-opacity:1;"
         offset="0"
         id="stop20816" />
    </linearGradient>
    <rect
       x="218.0103"
       y="323.96979"
       width="250.39372"
       height="237.34656"
       id="rect3531" />
  </defs>
  <g
     id="layer2"
     transform="translate(87.171484,-48.066284)">
    <rect
       style="fill:#000000;fill-opacity:1;stroke-width:0.277793"
       id="rect49427"
       width="363.62906"
       height="84.648918"
       x="3.6733112"
       y="58.066284" />
    <path
       id="text72055"
       style="font-style:normal;font-weight:normal;font-size:233.401px;line-height:1.25;font-family:sans-serif;white-space:pre;shape-inside:url(#rect72057);fill:#000000;fill-opacity:1;stroke:none;stroke-width:1.05047"
       d="M 258.31445 147.91602 C 217.96897 147.91602 195.74219 179.51673 195.74219 218.58203 C 195.74219 259.63792 218.45255 288.75 262.42188 288.75 C 284.16495 288.75 301.55919 281.28535 313.63867 270.58594 L 298.41797 249.1875 C 288.2712 255.90574 277.15881 260.13672 265.5625 260.13672 C 249.1344 260.13672 237.29616 251.67695 234.63867 230.0293 L 317.74609 230.0293 C 318.22927 226.04812 318.4707 220.32453 318.4707 215.8457 C 318.4707 173.29687 295.03609 147.91602 258.31445 147.91602 z M 154.43164 148.41406 C 133.89651 148.41406 119.88353 159.36292 110.70312 182.00586 L 103.93945 152.39648 L 57.794922 152.39648 L 57.794922 178.52148 L 74.707031 178.52148 L 74.707031 258.14648 L 57.794922 258.14648 L 57.794922 284.52148 L 138.24414 284.52148 L 138.24414 258.14648 L 112.87695 258.14648 L 112.87695 220.32422 C 118.67511 200.66716 130.03001 185.98628 144.52539 183.49805 L 144.52539 207.63477 L 168.68555 207.63477 L 175.69141 152.39648 C 169.65166 149.90825 163.12887 148.41406 154.43164 148.41406 z M 258.31445 174.29297 C 274.50096 174.29297 281.02404 186.98121 281.26562 206.14062 L 234.15625 206.14062 C 235.84738 184.24415 244.78543 174.29297 258.31445 174.29297 z "
       transform="matrix(0.26458333,0,0,0.26458333,-87.171484,48.066284)" />
  </g>
  <g
     id="layer1"
     transform="translate(87.171484,-48.066284)">
    <path
       id="text26682"
       style="font-style:normal;font-weight:normal;font-size:266.667px;line-height:1.25;font-family:sans-serif;white-space:pre;shape-inside:url(#rect26684);fill:#ffffff;fill-opacity:1;stroke:none;stroke-width:0.875253"
       d="M 1207.0254 89.455078 C 1193.7395 89.455078 1184.5234 98.670783 1184.5234 110.75977 C 1184.5234 122.84875 1193.7395 132.18555 1207.0254 132.18555 C 1220.0719 132.18555 1229.2871 122.84875 1229.2871 110.75977 C 1229.2871 98.670783 1220.0719 89.455078 1207.0254 89.455078 z M 712.33398 105.49414 L 712.33398 131.34766 L 749.79688 131.34766 L 749.79688 238.47266 C 749.79688 268.1565 763.68284 287.1875 794.32422 287.1875 C 810.48276 287.1875 822.45047 283.35692 831.06836 278.80859 L 821.97266 253.55469 C 816.70617 255.70916 810.48099 257.38477 804.01758 257.38477 C 793.84368 257.38477 787.62109 253.43421 787.62109 243.14062 L 787.62109 105.49414 L 712.33398 105.49414 z M 491.14062 113.03516 C 456.78876 113.03516 428.66211 130.74839 428.66211 161.15039 C 428.66211 186.40559 443.5027 201.12892 482.2832 212.97852 C 505.38393 220.0404 512.44727 225.54578 512.44727 237.63477 C 512.44727 250.5616 501.1948 257.98242 484.79688 257.98242 C 467.08233 257.98242 452.24188 251.99892 440.0332 241.22656 L 420.16406 263.25 C 434.04844 276.89499 454.39632 287.1875 485.75586 287.1875 C 528.00745 287.1875 553.26172 265.64304 553.26172 234.64258 C 553.26172 204.12089 534.70915 190.83575 503.34961 181.14062 C 476.89748 172.88181 469.35742 168.81087 469.35742 158.1582 C 469.35742 147.50553 479.29229 141.88086 494.25391 141.88086 C 507.65951 141.88086 520.82504 146.42958 532.07617 155.76562 L 550.62891 134.45898 C 536.26576 120.81399 516.75491 113.03516 491.14062 113.03516 z M 1070.0957 123.92773 L 1032.2734 128.47461 L 1032.2734 156.00391 L 1005.582 156.00391 L 1005.582 182.09766 L 1032.2734 182.09766 L 1032.2734 239.78906 C 1032.2734 268.99413 1048.073 287.1875 1081.3477 287.1875 C 1098.9425 287.1875 1113.0655 282.16068 1123 275.69727 L 1110.4316 251.63867 C 1104.447 254.99007 1097.0272 257.38477 1088.1699 257.38477 C 1075.6022 257.38477 1070.0957 252.47651 1070.0957 239.78906 L 1070.0957 182.09766 L 1107.3203 182.09766 L 1111.0312 156.00391 L 1070.0957 156.00391 L 1070.0957 123.92773 z M 632.73828 151.81445 C 593.83809 151.81445 570.97656 179.1049 570.97656 219.44141 C 570.97656 262.17177 593.83809 287.1875 632.73828 287.1875 C 671.63847 287.1875 694.5 261.69411 694.5 219.20312 C 694.5 178.50754 671.87786 151.81445 632.73828 151.81445 z M 1350.8965 151.81445 C 1311.9963 151.81445 1289.1348 179.1049 1289.1348 219.44141 C 1289.1348 262.17177 1311.9963 287.1875 1350.8965 287.1875 C 1389.7967 287.1875 1412.6582 261.69411 1412.6582 219.20312 C 1412.6582 178.50754 1390.0361 151.81445 1350.8965 151.81445 z M 1514.6367 151.81445 C 1498.4782 151.81445 1486.3879 158.03911 1475.1367 170.72656 L 1472.5039 156.00391 L 1439.4688 156.00391 L 1439.4688 283.11914 L 1477.291 283.11914 L 1477.291 194.1875 C 1484.4726 185.09084 1491.5353 179.70312 1499.5547 179.70312 C 1508.8907 179.70312 1511.7637 185.09031 1511.7637 200.65039 L 1511.7637 283.11914 L 1549.5859 283.11914 L 1549.5859 189.75781 C 1549.5859 165.69954 1536.3011 151.81445 1514.6367 151.81445 z M 864.94141 156.00391 L 864.94141 247.68945 C 864.94141 271.86742 876.67139 287.1875 901.32812 287.1875 C 916.64882 287.1875 931.73172 280.72541 940.34961 268.27734 L 942.02539 283.11914 L 975.06055 283.11914 L 975.06055 156.00391 L 937.23633 156.00391 L 937.23633 245.41602 C 931.96984 253.91421 923.47144 259.17969 915.69141 259.17969 C 907.55229 259.17969 902.76562 255.34985 902.76562 243.02148 L 902.76562 156.00391 L 864.94141 156.00391 z M 1157.2324 156.00391 L 1157.2324 181.85742 L 1192.0625 181.85742 L 1192.0625 257.26562 L 1156.0352 257.26562 L 1156.0352 283.11914 L 1262.2031 283.11914 L 1262.2031 257.26562 L 1229.8867 257.26562 L 1229.8867 156.00391 L 1157.2324 156.00391 z M 632.73828 179.70312 C 648.17867 179.70312 655.48047 191.79345 655.48047 219.20312 C 655.48047 247.57034 648.17867 259.41992 632.73828 259.41992 C 617.2979 259.41992 609.99609 247.56924 609.99609 219.44141 C 609.99609 191.79235 617.2979 179.70312 632.73828 179.70312 z M 1350.8965 179.70312 C 1366.3369 179.70312 1373.6367 191.79345 1373.6367 219.20312 C 1373.6367 247.57034 1366.3369 259.41992 1350.8965 259.41992 C 1335.4561 259.41992 1328.1543 247.56924 1328.1543 219.44141 C 1328.1543 191.79235 1335.4561 179.70312 1350.8965 179.70312 z M 1638.1582 233.80469 C 1623.436 233.80469 1611.4668 246.01325 1611.4668 260.49609 C 1611.4668 274.97893 1623.436 287.1875 1638.1582 287.1875 C 1652.8804 287.1875 1664.8496 274.97893 1664.8496 260.49609 C 1664.8496 246.01325 1652.8804 233.80469 1638.1582 233.80469 z "
       transform="matrix(0.26458333,0,0,0.26458333,-87.171484,48.066284)" />
  </g>
</svg>
